PathFileType	4	(X/Y/Z)	Walk3.trc
DataRate	CameraRate	NumFrames	NumMarkers	Units	OrigDataRate	OrigDataStartFrame	OrigNumFrames
200.000000	200.000000	4	59	mm	200.000000	336	578
Frame#	Times		CLAV		STRN		RASI		RACR1		RUA1		RElbow		RFA1		RWRU		LACR1		LUA1		LFA1		LCAR		RTH1		RTH3		RTH2		LTH3		LLFC		LTB1		LTB3		LTB4		LToe		LTH2		RFHD		LTH4		LFHD		LTB2		RBack		RTH4		LMT1		RCAR		RWRR		C7		RPSI		LMT5		LTH1		T10		LMMAL		RLFC		RTB1		LPSI		LLMAL		RBHD		LElbow		LBHD		RTB2		RTB4		RToe		RElbowM		LWRU		RTB3		LWRR		RMT1		RLMAL		RMMAL		LASI		RMT5		RCAL		LElbowM		LCAL
			X1	Y1	Z1	X2	Y2	Z2	X3	Y3	Z3	X4	Y4	Z4	X5	Y5	Z5	X6	Y6	Z6	X7	Y7	Z7	X8	Y8	Z8	X9	Y9	Z9	X10	Y10	Z10	X11	Y11	Z11	X12	Y12	Z12	X13	Y13	Z13	X14	Y14	Z14	X15	Y15	Z15	X16	Y16	Z16	X17	Y17	Z17	X18	Y18	Z18	X19	Y19	Z19	X20	Y20	Z20	X21	Y21	Z21	X22	Y22	Z22	X23	Y23	Z23	X24	Y24	Z24	X25	Y25	Z25	X26	Y26	Z26	X27	Y27	Z27	X28	Y28	Z28	X29	Y29	Z29	X30	Y30	Z30	X31	Y31	Z31	X32	Y32	Z32	X33	Y33	Z33	X34	Y34	Z34	X35	Y35	Z35	X36	Y36	Z36	X37	Y37	Z37	X38	Y38	Z38	X39	Y39	Z39	X40	Y40	Z40	X41	Y41	Z41	X42	Y42	Z42	X43	Y43	Z43	X44	Y44	Z44	X45	Y45	Z45	X46	Y46	Z46	X47	Y47	Z47	X48	Y48	Z48	X49	Y49	Z49	X50	Y50	Z50	X51	Y51	Z51	X52	Y52	Z52	X53	Y53	Z53	X54	Y54	Z54	X55	Y55	Z55	X56	Y56	Z56	X57	Y57	Z57	X58	Y58	Z58	X59	Y59	Z59

336	1.68	-234.48	1347.2	-23.445	-160.01	1124.3	-22.889	-208.9	959.87	123.94	-285.62	1358	151.25	-335.99	1151.1	210.04	-373.47	1048.9	230.36	-323.95	903.63	245.12	-361.92	797.14	258.26	-300.09	1368.1	-188.85	-294.33	1162	-244.28	-212.55	934.54	-253.61	-154.14	787.64	-246.35	-262.48	764.43	180.16	-187.21	593.53	144.63	-164.05	713.32	139.71	-317.89	551.63	-125.02	-328.1	443.51	-108.35	-319.52	343.12	-26.709	-384.07	166.91	-21.069	-350.45	252.66	-27.601	-262.17	29.633	-65.022	-250.27	644.41	-123.26	-171.8	1581.6	28.8	-324.02	637.59	-144.63	-176.03	1581.5	-44.166	-372.15	258.89	-96.417	-404.9	1321.8	77.893	-224.61	678.69	162.63	-306.92	38.635	-33.262	-318.87	753.18	259.11	-305.93	798.06	209.95	-358.05	1427.2	-15.575	-424.96	986.93	59.628	-350.97	22.388	-108.64	-326.84	733.23	-167.2	-395.77	1142.5	-17.213	-432.16	76.103	15.982	-164.91	501.34	131.04	-140.54	375.48	68.26	-429.69	982.1	-54.567	-452.9	65.386	-64.369	-346.47	1559.7	58.242	-293.65	1041.8	-261.71	-346.84	1570	-68.732	-192.98	297.63	133.34	-169.62	287.3	66.948	-87.529	46.933	134.01	-381.37	1028.5	146.68	-209.83	813.15	-266.36	-197.45	199.86	65.614	-174.27	827.59	-205.45	-115.15	56.341	95.798	-268.55	105.56	108.15	-231.09	116.28	35.233	-217.4	940.37	-144.12	-173.6	38.186	152.54	-307.44	75.639	52.463	-327.51	1023.3	-202.12	-502.56	35.916	-7.5324
337	1.685	-229.25	1346.5	-23.312	-154.76	1123.5	-22.915	-203.54	959.03	124.02	-280.29	1357.2	151.45	-331.35	1150.5	210.16	-369.15	1048.4	230.43	-320.17	902.94	245.44	-358.55	796.55	258.42	-295.07	1367.7	-188.59	-288.41	1161.8	-244.44	-204.46	935.19	-253.74	-144.39	789.01	-246.11	-256.88	764.03	180.64	-181.63	593.15	144.89	-158.67	712.96	139.63	-314.27	550.93	-124.83	-325.04	442.82	-108.14	-317.22	342.35	-26.477	-383.17	166.64	-20.905	-348.84	252.13	-27.402	-262.09	29.568	-65.116	-246.3	643.47	-123.02	-166.48	1580.9	29.141	-320.06	636.89	-144.39	-170.76	1580.9	-43.827	-370.38	258.5	-96.261	-399.62	1321.1	78.084	-218.99	678.29	163.1	-306.88	38.609	-33.241	-315.69	752.42	259.39	-302.36	797.29	210.31	-352.81	1426.6	-15.244	-419.53	986.37	60.011	-350.93	22.419	-108.61	-322.53	732.54	-166.93	-390.47	1141.9	-17.037	-431.84	76.187	16.095	-159.43	500.32	131.58	-131.96	375.03	68.546	-424.55	981.53	-54.156	-452.66	65.627	-64.324	-341.15	1559	58.702	-286.67	1041.7	-262.05	-341.59	1569.5	-68.302	-181.77	295.56	133.62	-158.21	286.01	67.218	-68.605	47.925	134.23	-376.73	1027.9	146.74	-200.33	813.86	-266.27	-183.23	197.77	65.841	-165.06	828.76	-205.3	-96.494	56.657	96.047	-251.31	101.3	108.32	-214.18	113.24	35.385	-212.7	939.46	-144.16	-154.4	36.836	152.84	-289.32	70.276	52.58	-320.44	1022.8	-202.51	-502.47	36.342	-7.4374
338	1.69	-224	1345.8	-23.16	-149.49	1122.8	-22.923	-198.15	958.11	124.13	-274.93	1356.3	151.67	-326.65	1149.8	210.31	-364.77	1047.8	230.53	-316.32	902.21	245.77	-355.09	795.92	258.6	-290.03	1367.3	-188.31	-282.51	1161.6	-244.57	-196.41	935.8	-253.86	-134.71	790.35	-245.89	-251.32	763.55	181.11	-176.21	592.62	145.18	-153.38	712.42	139.55	-310.63	550.21	-124.64	-321.96	442.12	-107.93	-314.91	341.58	-26.254	-382.26	166.37	-20.746	-347.22	251.58	-27.211	-262.01	29.494	-65.223	-242.31	642.5	-122.78	-161.17	1580.1	29.503	-316.09	636.17	-144.17	-165.49	1580.2	-43.466	-368.6	258.1	-96.105	-394.32	1320.4	78.297	-213.48	677.78	163.58	-306.84	38.583	-33.216	-312.42	751.61	259.67	-298.73	796.49	210.69	-347.55	1425.9	-14.894	-414.09	985.77	60.418	-350.89	22.449	-108.58	-318.22	731.84	-166.65	-385.15	1141.2	-16.826	-431.5	76.284	16.205	-154.11	499.16	132.14	-123.52	374.56	68.838	-419.4	980.92	-53.719	-452.42	65.88	-64.274	-335.82	1558.3	59.191	-279.71	1041.5	-262.35	-336.34	1568.9	-67.846	-170.62	293.54	133.92	-146.89	284.76	67.502	-49.739	49.187	134.33	-372.06	1027.2	146.84	-190.9	814.55	-266.16	-169.05	195.81	66.078	-155.89	829.91	-205.16	-77.905	57.22	96.209	-234	97.249	108.52	-197.29	110.41	35.55	-208.03	938.52	-144.22	-135.18	35.738	153.09	-271.12	65.16	52.73	-313.38	1022.3	-202.84	-502.38	36.794	-7.3348
339	1.695	-218.73	1345.1	-22.988	-144.21	1121.9	-22.914	-192.73	957.09	124.27	-269.55	1355.5	151.91	-321.89	1149.1	210.48	-360.32	1047.2	230.66	-312.39	901.45	246.12	-351.56	795.26	258.81	-284.97	1366.8	-188.01	-276.64	1161.3	-244.67	-188.39	936.38	-253.96	-125.1	791.66	-245.68	-245.81	762.98	181.57	-170.97	591.94	145.5	-148.17	711.71	139.48	-306.96	549.48	-124.46	-318.85	441.39	-107.73	-312.57	340.79	-26.041	-381.32	166.11	-20.592	-345.58	251.03	-27.028	-261.91	29.411	-65.342	-238.29	641.53	-122.54	-155.85	1579.3	29.887	-312.1	635.45	-143.96	-160.22	1579.5	-43.083	-366.81	257.7	-95.952	-389	1319.6	78.533	-208.08	677.15	164.07	-306.8	38.556	-33.189	-309.07	750.78	259.98	-295.04	795.65	211.07	-342.28	1425.2	-14.523	-408.63	985.13	60.849	-350.86	22.479	-108.53	-313.89	731.12	-166.39	-379.81	1140.5	-16.578	-431.16	76.395	16.314	-148.93	497.88	132.73	-115.23	374.07	69.136	-414.22	980.28	-53.252	-452.17	66.146	-64.218	-330.5	1557.5	59.706	-272.77	1041.2	-262.6	-331.09	1568.3	-67.365	-159.54	291.58	134.24	-135.66	283.59	67.799	-30.966	50.732	134.32	-367.37	1026.6	146.97	-181.54	815.22	-266.04	-154.94	194	66.326	-146.77	831.03	-205.03	-59.417	58.038	96.288	-216.64	93.422	108.74	-180.43	107.81	35.731	-203.38	937.56	-144.31	-115.96	34.907	153.3	-252.86	60.311	52.912	-306.32	1021.7	-203.13	-502.28	37.269	-7.2231
